<svg width="44" height="39" viewBox="0 0 44 39" fill="none" xmlns="http://www.w3.org/2000/svg">
<path d="M39.6001 39C40.767 39 41.8861 38.5435 42.7113 37.7308C43.5364 36.9181 44 35.8159 44 34.6667V24.0847C44 22.9354 43.5364 21.8332 42.7113 21.0205C41.8861 20.2079 40.767 19.7513 39.6001 19.7513H33.493C33.493 18.2289 33.5839 16.7064 33.7658 15.184C34.0386 13.572 34.4932 12.1391 35.1298 10.8853C35.7663 9.63156 36.5861 8.645 37.5893 7.92567C38.5866 7.11967 39.8597 6.71667 41.4084 6.71667V0C38.8624 0 36.6331 0.537333 34.7206 1.612C32.8213 2.67312 31.1895 4.14247 29.9467 5.91067C28.6954 7.85698 27.774 9.99087 27.2187 12.2287C26.6572 14.6976 26.3826 17.2213 26.4003 19.7513V34.6667C26.4003 35.8159 26.8639 36.9181 27.689 37.7308C28.5142 38.5435 29.6333 39 30.8002 39H39.6001ZM13.2006 39C14.3675 39 15.4866 38.5435 16.3118 37.7308C17.1369 36.9181 17.6005 35.8159 17.6005 34.6667V24.0847C17.6005 22.9354 17.1369 21.8332 16.3118 21.0205C15.4866 20.2079 14.3675 19.7513 13.2006 19.7513H7.09347C7.09347 18.2289 7.1844 16.7064 7.36627 15.184C7.642 13.572 8.09666 12.1391 8.73024 10.8853C9.36677 9.63156 10.1866 8.645 11.1898 7.92567C12.1871 7.11967 13.4602 6.71667 15.0089 6.71667V0C12.4628 0 10.2335 0.537333 8.32105 1.612C6.42179 2.67312 4.79 4.14247 3.54714 5.91067C2.29585 7.85698 1.37449 9.99087 0.819188 12.2287C0.257685 14.6976 -0.0168748 17.2213 0.000802082 19.7513V34.6667C0.000802082 35.8159 0.464364 36.9181 1.28951 37.7308C2.11465 38.5435 3.23379 39 4.40072 39H13.2006Z" fill="#C25849"/>
</svg>
